<?xml version="1.0" standalone="no"?>
<!DOCTYPE svg PUBLIC "-//W3C//DTD SVG 20010904//EN"
 "http://www.w3.org/TR/2001/REC-SVG-20010904/DTD/svg10.dtd">
<svg version="1.0" xmlns="http://www.w3.org/2000/svg"
 width="300.000000pt" height="300.000000pt" viewBox="0 0 300.000000 300.000000"
 preserveAspectRatio="xMidYMid meet">
<metadata>
Created by potrace 1.10, written by Peter Selinger 2001-2011
</metadata>
<g transform="translate(0.000000,300.000000) scale(0.100000,-0.100000)"
fill="#000000" stroke="none">
<path d="M1203 2163 c-13 -8 -23 -23 -23 -32 1 -19 23 -51 36 -51 8 0 40 -41
156 -194 18 -23 17 -24 -21 -49 l-38 -25 -127 90 c-70 49 -131 100 -136 113
-10 26 -45 38 -72 24 -33 -18 -18 -89 20 -89 12 0 88 -49 219 -144 l52 -37
-30 -42 c-70 -97 -101 -219 -80 -320 12 -60 31 -104 60 -139 12 -16 10 -17
-23 -11 -42 7 -86 -17 -86 -47 0 -10 11 -27 25 -38 17 -14 25 -30 25 -51 0
-34 28 -56 60 -46 11 3 49 6 85 6 73 0 108 -12 60 -21 -22 -4 -31 -11 -33 -29
-4 -23 -2 -24 44 -17 26 3 53 11 60 17 18 15 18 44 -1 59 -23 19 -14 21 30 5
79 -28 209 -14 290 32 47 26 61 58 52 119 -4 26 -4 25 -6 -8 0 -20 -6 -49 -12
-65 l-12 -28 -18 55 c-16 50 -18 52 -13 15 5 -36 1 -32 -43 50 -27 50 -56 102
-66 117 -12 18 -15 28 -7 33 18 11 42 -16 77 -90 19 -39 31 -57 28 -40 -9 44
-68 139 -89 143 -41 8 -39 -16 10 -105 70 -126 97 -183 90 -190 -8 -8 -3 -16
-71 107 -32 58 -67 117 -77 132 -19 27 -20 27 -49 13 -16 -9 -29 -18 -29 -21
0 -7 54 -76 128 -162 59 -69 85 -116 43 -78 -11 10 -25 15 -32 10 -8 -4 -10
-3 -5 4 4 7 -28 53 -79 112 -75 88 -89 99 -106 90 -10 -6 -19 -16 -19 -21 0
-13 75 -88 165 -166 33 -29 55 -52 48 -53 -15 0 -157 112 -206 163 -31 33 -42
39 -55 30 -35 -21 -24 -41 55 -97 43 -30 83 -55 88 -55 6 0 -1 8 -15 17 -115
79 -141 103 -130 117 10 12 25 3 89 -57 42 -39 75 -75 74 -79 -4 -11 35 -31
46 -25 4 3 8 -1 8 -9 0 -20 -5 -19 -63 6 -59 26 -152 84 -177 111 -22 23 -42
19 -42 -8 0 -14 26 -32 104 -71 56 -29 96 -53 87 -53 -26 0 -148 49 -188 75
-41 27 -54 31 -60 14 -2 -6 -19 -14 -38 -18 -26 -5 -36 -13 -38 -29 -3 -22 -2
-23 62 -16 43 4 82 2 111 -6 81 -23 82 -74 2 -87 -48 -7 -50 14 -2 23 38 7 45
18 18 32 -34 18 -90 22 -144 12 -47 -9 -56 -8 -67 7 -7 10 -11 27 -8 38 4 13
-4 27 -26 45 l-31 27 22 22 c14 14 32 21 49 19 22 -2 28 -9 30 -35 4 -35 21
-43 42 -18 11 13 8 23 -19 61 -67 92 -88 215 -57 329 16 60 29 88 67 136 16
20 29 41 29 47 0 14 -230 177 -282 200 -31 13 -36 33 -13 56 20 19 44 10 51
-19 3 -13 13 -26 21 -29 8 -4 27 -16 42 -27 60 -48 205 -149 213 -149 16 0 88
53 88 64 -1 6 -28 45 -60 86 -33 41 -70 89 -83 107 -12 18 -30 34 -40 37 -14
3 -18 12 -15 33 2 22 8 28 28 28 19 0 26 -6 30 -27 8 -42 181 -260 200 -251 8
3 47 8 86 11 205 12 372 -121 416 -332 9 -43 9 -72 -1 -133 l-13 -77 36 -33
c41 -38 31 -54 -14 -22 l-30 23 0 111 c0 159 -27 242 -109 328 -61 65 -70 44
-14 -34 20 -28 52 -88 70 -133 21 -49 31 -67 28 -46 -4 19 -22 65 -41 103 -37
74 -41 85 -20 68 7 -6 26 -39 41 -73 24 -53 28 -77 32 -176 2 -62 -1 -130 -7
-150 -9 -35 -7 -41 31 -95 50 -71 41 -89 -12 -26 l-39 45 -3 115 c-2 93 -8
129 -30 194 -15 44 -37 96 -50 115 l-22 35 -3 -37 c-2 -26 6 -58 28 -103 17
-36 37 -93 44 -126 6 -33 14 -58 16 -55 3 2 4 -28 2 -67 -5 -103 -18 -103 -26
-1 -7 80 -42 218 -66 254 -8 13 -11 12 -24 -5 -20 -27 -20 -33 8 -82 26 -45
51 -137 61 -224 6 -46 4 -57 -9 -62 -9 -4 -16 -12 -16 -19 0 -7 17 5 38 25
l39 38 37 -46 c39 -46 56 -54 74 -32 8 9 -1 26 -34 66 -24 29 -44 57 -44 61 0
18 17 18 46 -1 64 -42 87 -11 29 40 l-36 31 12 60 c56 284 -189 537 -469 488
-30 -5 -55 -8 -56 -6 -1 2 -29 37 -62 78 -84 105 -104 135 -104 158 0 12 -10
28 -22 36 -27 19 -27 19 -55 -1z m662 -650 c23 -87 17 -97 -9 -15 -13 40 -31
83 -40 97 -9 13 -16 35 -16 47 1 34 46 -56 65 -129z m-50 -45 c7 -26 16 -69
19 -95 l6 -48 -15 55 c-9 30 -27 74 -40 98 -26 46 -24 92 2 56 7 -10 20 -40
28 -66z m-219 -115 c26 -41 123 -213 119 -213 -3 0 -157 189 -169 208 -4 6 -4
17 -1 22 11 18 32 11 51 -17z m-80 -50 c9 -16 34 -46 55 -68 21 -22 48 -53 60
-70 22 -29 21 -29 -17 5 -92 82 -153 144 -148 152 10 16 32 8 50 -19z m-56
-153 c22 -11 40 -23 40 -25 0 -7 -98 43 -133 67 -15 11 -25 24 -21 29 3 5 21
-4 40 -21 19 -16 52 -39 74 -50z m-73 -24 c1 -1 -39 -1 -88 -1 -65 0 -89 3
-89 13 0 7 13 12 30 12 16 0 35 6 42 13 10 11 20 9 57 -11 26 -14 47 -26 48
-26z"/>
<path d="M1431 1832 c-112 -56 -207 -167 -236 -277 -18 -70 -19 -85 -4 -85 6
0 9 9 6 20 -3 11 -1 18 4 15 4 -3 20 18 35 47 42 84 118 170 207 236 63 47 74
63 25 35 -57 -31 -201 -184 -236 -248 -18 -35 -31 -52 -32 -40 0 34 63 142
112 192 55 57 148 116 183 116 14 0 28 3 31 8 11 18 -43 7 -95 -19z"/>
<path d="M1468 1778 c-134 -117 -167 -156 -222 -266 -51 -102 -45 -109 16 -18
29 44 105 134 169 201 102 107 150 165 135 165 -3 0 -47 -37 -98 -82z m37 8
c-9 -13 -37 -41 -63 -64 -26 -22 -74 -73 -107 -113 -89 -111 -95 -115 -32 -19
23 35 203 220 215 220 1 0 -5 -11 -13 -24z"/>
<path d="M1637 1819 c-10 -25 -15 -55 -11 -65 4 -14 4 -16 -4 -5 -8 11 -15 5
-35 -26 -14 -22 -73 -81 -130 -132 -107 -93 -165 -161 -192 -225 -23 -55 -19
-53 29 11 24 33 77 86 117 119 41 32 103 88 139 124 53 53 69 77 88 132 29 81
28 140 -1 67z m-31 -116 c-24 -44 -54 -75 -160 -163 -55 -45 -110 -94 -123
-109 -14 -14 -20 -18 -16 -8 14 27 112 125 173 172 57 44 86 74 116 120 22 34
30 25 10 -12z"/>
<path d="M1580 1819 c-14 -19 -77 -89 -142 -157 -104 -109 -143 -159 -106
-136 7 4 8 3 4 -5 -4 -6 -11 -9 -16 -6 -9 6 -103 -135 -95 -143 3 -3 6 -3 8
-1 62 89 109 144 202 234 71 69 125 131 145 167 36 66 36 99 0 47z m-23 -66
c-14 -22 -47 -59 -73 -84 -27 -24 -70 -66 -96 -94 -27 -27 -48 -46 -48 -41 0
4 52 61 115 126 63 66 115 125 115 131 0 7 3 10 6 7 3 -4 -6 -24 -19 -45z"/>
<path d="M1686 1809 c-9 -44 -7 -56 4 -39 7 11 8 5 4 -20 -14 -80 -27 -113
-59 -148 -36 -40 -172 -138 -180 -130 -3 2 33 37 79 76 80 68 126 127 141 182
3 14 -8 0 -25 -30 -39 -69 -61 -92 -187 -196 -97 -80 -193 -183 -193 -207 0
-5 30 19 68 54 37 36 110 94 162 130 166 112 196 155 208 297 5 65 -10 88 -22
31z m-236 -343 c0 -2 -19 -19 -42 -37 l-43 -33 34 37 c31 33 51 46 51 33z"/>
<path d="M1737 1800 c-3 -8 -8 -39 -11 -68 -12 -120 -51 -169 -231 -290 -87
-58 -144 -109 -179 -162 -29 -44 -17 -45 27 -3 50 48 113 90 237 158 140 76
181 133 179 250 0 63 -14 135 -22 115z m8 -144 c-3 -35 -15 -77 -25 -94 -24
-39 -90 -88 -195 -144 -44 -24 -100 -58 -125 -77 -25 -19 -38 -26 -30 -15 22
27 52 51 164 128 56 37 112 78 124 90 32 28 60 84 74 148 14 67 22 46 13 -36z"/>
<path d="M1698 1476 c-23 -17 -23 -16 11 -75 17 -27 41 -85 56 -128 21 -63 25
-70 20 -34 -7 50 -38 130 -71 180 -22 32 -22 35 -6 47 15 11 19 9 31 -14 8
-15 25 -61 37 -102 24 -77 32 -71 13 10 -13 56 -49 130 -63 130 -6 0 -19 -7
-28 -14z"/>
<path d="M1161 1221 c-16 -10 -6 -31 14 -31 14 0 27 24 18 34 -8 8 -15 7 -32
-3z"/>
</g>
</svg>
